<?xml version="1.0" encoding="UTF-8" standalone="no"?>
<svg
   xmlns:dc="http://purl.org/dc/elements/1.1/"
   xmlns:cc="http://creativecommons.org/ns#"
   xmlns:rdf="http://www.w3.org/1999/02/22-rdf-syntax-ns#"
   xmlns:svg="http://www.w3.org/2000/svg"
   xmlns="http://www.w3.org/2000/svg"
   xmlns:xlink="http://www.w3.org/1999/xlink"
   xmlns:sodipodi="http://sodipodi.sourceforge.net/DTD/sodipodi-0.dtd"
   xmlns:inkscape="http://www.inkscape.org/namespaces/inkscape"
   version="1.1"
   width="864"
   height="576"
   id="svg2"
   sodipodi:version="0.32"
   inkscape:version="0.92.1 r15371"
   sodipodi:docname="16_Flag_of_the_Western_European_Union.svg"
   inkscape:output_extension="org.inkscape.output.svg.inkscape">
  <metadata
     id="metadata42">
    <rdf:RDF>
      <cc:Work
         rdf:about="">
        <dc:format>image/svg+xml</dc:format>
        <dc:type
           rdf:resource="http://purl.org/dc/dcmitype/StillImage" />
        <dc:title></dc:title>
      </cc:Work>
    </rdf:RDF>
  </metadata>
  <sodipodi:namedview
     inkscape:window-height="615"
     inkscape:window-width="1360"
     inkscape:pageshadow="2"
     inkscape:pageopacity="0.0"
     guidetolerance="10.0"
     gridtolerance="10.0"
     objecttolerance="10.0"
     borderopacity="1.0"
     bordercolor="#666666"
     pagecolor="#ffffff"
     id="base"
     showgrid="false"
     inkscape:zoom="0.52314815"
     inkscape:cx="453.73544"
     inkscape:cy="159.59103"
     inkscape:window-x="0"
     inkscape:window-y="0"
     inkscape:current-layer="svg2"
     inkscape:window-maximized="1" />
  <desc
     id="desc4">European flag</desc>
  <defs
     id="defs6">
    <g
       id="s">
      <g
         id="c">
        <path
           id="t"
           d="m 0,-1.0666667 -0.32961813,1.0144603 0.50723015,0.16480907 z"
           inkscape:connector-curvature="0"
           style="stroke-width:1.06666672" />
        <use
           xlink:href="#t"
           transform="scale(-1,1)"
           id="use11"
           x="0"
           y="0"
           width="100%"
           height="100%" />
      </g>
      <g
         id="a">
        <use
           xlink:href="#c"
           transform="rotate(72)"
           id="use14"
           x="0"
           y="0"
           width="100%"
           height="100%" />
        <use
           xlink:href="#c"
           transform="rotate(144)"
           id="use16"
           x="0"
           y="0"
           width="100%"
           height="100%" />
      </g>
      <use
         xlink:href="#a"
         transform="scale(-1,1)"
         id="use18"
         x="0"
         y="0"
         width="100%"
         height="100%" />
    </g>
  </defs>
  <rect
     width="864"
     height="576"
     id="rect20"
     x="0"
     y="0"
     style="fill:#003399;stroke-width:1.06666672" />
  <path
     inkscape:connector-curvature="0"
     style="font-style:normal;font-variant:normal;font-weight:bold;font-stretch:normal;font-size:99.69660187px;line-height:125%;font-family:'Helvetica 55 Roman';-inkscape-font-specification:'Helvetica 55 Roman Bold';text-align:start;writing-mode:lr-tb;text-anchor:start;fill:#ffffff;fill-opacity:1;stroke:none;stroke-width:0;stroke-linecap:butt;stroke-linejoin:miter;stroke-opacity:1;stroke-miterlimit:4;stroke-dasharray:none"
     d="m 404.203,298.91756 h 55.33169 v -13.47561 h -39.30388 v -17.8654 h 35.32245 v -12.45474 h -35.32245 v -15.61947 h 38.48718 V 226.02672 H 404.203 Z"
     id="path3745" />
  <path
     inkscape:connector-curvature="0"
     style="font-style:normal;font-variant:normal;font-weight:bold;font-stretch:normal;font-size:99.69660187px;line-height:125%;font-family:'Helvetica 55 Roman';-inkscape-font-specification:'Helvetica 55 Roman Bold';text-align:center;writing-mode:lr-tb;text-anchor:middle;fill:#ffffff;fill-opacity:1;stroke:none;stroke-width:0;stroke-linecap:butt;stroke-linejoin:miter;stroke-opacity:1;stroke-miterlimit:4;stroke-dasharray:none"
     d="m 462.6698,142.90317 h -16.02782 v 45.32707 c 0.085,5.39368 -1.00392,9.38361 -3.26681,11.96982 -2.263,2.58624 -6.2104,3.87085 -11.84222,3.85382 -6.29758,-0.16163 -10.41938,-1.80354 -12.3654,-4.92575 -1.94608,-3.12216 -2.82659,-6.75479 -2.64153,-10.89789 v -45.32707 h -16.02781 v 45.32707 c 0.0681,9.88554 2.79039,17.24438 8.16703,22.07653 5.37662,4.83217 12.99918,7.23974 22.86771,7.22274 9.82806,0.0107 17.45487,-2.40971 22.88049,-7.26103 5.42547,-4.85129 8.1776,-12.19736 8.25636,-22.03824 z"
     id="path3754" />
  <path
     inkscape:connector-curvature="0"
     style="font-style:normal;font-variant:normal;font-weight:bold;font-stretch:normal;font-size:99.69660187px;line-height:125%;font-family:'Helvetica 55 Roman';-inkscape-font-specification:'Helvetica 55 Roman Bold';text-align:center;writing-mode:lr-tb;text-anchor:middle;fill:#ffffff;fill-opacity:1;stroke:none;stroke-width:0;stroke-linecap:butt;stroke-linejoin:miter;stroke-opacity:1;stroke-miterlimit:4;stroke-dasharray:none"
     d="m 431.56891,307.24197 c -11.36368,0.25104 -20.14702,3.93664 -26.36799,11.104 -6.22102,7.16748 -9.35707,16.28774 -9.44001,27.36 0.083,10.77881 3.219,19.74438 9.44001,26.848 6.22096,7.10361 15.0043,10.77626 26.36799,11.04 11.36363,-0.26375 20.17895,-3.93639 26.4,-11.04 6.22091,-7.10362 9.35698,-16.0692 9.44,-26.848 -0.083,-11.07226 -3.21908,-20.19252 -9.44,-27.36 -6.22105,-7.16736 -15.03638,-10.85296 -26.4,-11.104 z m 0,13.472 c 7.12274,0.24464 12.21842,2.80971 15.29601,7.712 3.07745,4.9024 4.58637,10.65495 4.512,17.28 0.0743,6.3316 -1.43454,11.92947 -4.512,16.768 -3.0776,4.83855 -8.17329,7.39065 -15.29601,7.648 -7.12278,-0.25735 -12.2185,-2.80944 -15.296,-7.648 -3.07756,-4.83853 -4.58646,-10.4364 -4.512,-16.768 -0.0745,-6.62505 1.43445,-12.3776 4.512,-17.28 3.07749,-4.9023 8.17321,-7.46736 15.296,-7.712 z"
     id="path3752" />
  <path
     inkscape:connector-curvature="0"
     id="path2569"
     d="m 390.51586,226.02672 h -14.44149 l -10.97179,50.22731 h -0.18755 l -11.44067,-50.22731 h -13.78507 l -11.62822,49.61478 h -0.18754 l -10.59669,-49.61478 h -14.72283 l 17.72365,72.89084 h 14.91039 l 11.15934,-49.61477 h 0.18754 l 11.34688,49.61477 h 14.62906 z"
     style="font-style:normal;font-variant:normal;font-weight:bold;font-stretch:normal;font-size:99.69660187px;line-height:125%;font-family:'Helvetica 55 Roman';-inkscape-font-specification:'Helvetica 55 Roman Bold';text-align:start;writing-mode:lr-tb;text-anchor:start;fill:#ffffff;fill-opacity:1;stroke:none;stroke-width:0;stroke-linecap:butt;stroke-linejoin:miter;stroke-opacity:1;stroke-miterlimit:4;stroke-dasharray:none" />
  <path
     inkscape:connector-curvature="0"
     id="path2571"
     d="m 541.60414,226.06288 h -16.78801 v 45.32708 c 0.0891,5.39367 -1.05154,9.3836 -3.42176,11.96982 -2.37034,2.58624 -6.50496,3.87084 -12.40391,3.85382 -6.59627,-0.16163 -10.91357,-1.80354 -12.95188,-4.92575 -2.0384,-3.12217 -2.96066,-6.7548 -2.76684,-10.89789 v -45.32708 h -16.78801 v 45.32708 c 0.0713,9.88553 2.92274,17.24437 8.5544,22.07652 5.63163,4.83218 13.61574,7.23974 23.95233,7.22274 10.29421,0.0107 18.28276,-2.40971 23.96572,-7.26101 5.68281,-4.85131 8.56546,-12.19738 8.64796,-22.03825 z"
     style="font-style:normal;font-variant:normal;font-weight:bold;font-stretch:normal;font-size:99.69660187px;line-height:125%;font-family:'Helvetica 55 Roman';-inkscape-font-specification:'Helvetica 55 Roman Bold';text-align:start;writing-mode:lr-tb;text-anchor:start;fill:#ffffff;fill-opacity:1;stroke:none;stroke-width:0;stroke-linecap:butt;stroke-linejoin:miter;stroke-opacity:1;stroke-miterlimit:4;stroke-dasharray:none" />
  <g
     id="g3495"
     style="fill:#ffcc00;fill-opacity:1;stroke:none;stroke-opacity:1;stroke-width:0;stroke-miterlimit:4;stroke-dasharray:none"
     transform="matrix(0.9997788,0,0,0.9997788,-0.61887104,0.10413849)">
    <path
       style="fill:#ffcc00;fill-opacity:1;stroke-width:0;stroke:none;stroke-opacity:1;stroke-miterlimit:4;stroke-dasharray:none"
       d="m 259.13473,185.24435 19.60656,14.22778 -7.49564,-23.00732 19.57186,-14.22778 h -24.18718 l -7.4956,-23.00729 -7.49563,23.00729 h -24.18716 l 19.57186,14.22778 -7.49561,23.00732 z"
       id="path3475"
       sodipodi:nodetypes="ccccccccccc"
       inkscape:connector-curvature="0" />
    <path
       sodipodi:nodetypes="ccccccccccc"
       id="path3477"
       d="m 240.45258,268.32483 19.60653,14.22777 -7.4956,-23.00731 19.57186,-14.22778 h -24.18719 l -7.4956,-23.0073 -7.49562,23.0073 h -24.18717 l 19.57186,14.22778 -7.49563,23.00731 z"
       style="fill:#ffcc00;fill-opacity:1;stroke-width:0;stroke:none;stroke-opacity:1;stroke-miterlimit:4;stroke-dasharray:none"
       inkscape:connector-curvature="0" />
    <path
       sodipodi:nodetypes="ccccccccccc"
       id="path3479"
       d="m 259.79453,351.40529 19.60653,14.22779 -7.49562,-23.00732 19.57187,-14.22778 h -24.18719 l -7.49559,-23.0073 -7.49563,23.0073 h -24.18717 l 19.57186,14.22778 -7.4956,23.00732 z"
       style="fill:#ffcc00;fill-opacity:1;stroke-width:0;stroke:none;stroke-opacity:1;stroke-miterlimit:4;stroke-dasharray:none"
       inkscape:connector-curvature="0" />
    <path
       style="fill:#ffcc00;fill-opacity:1;stroke-width:0;stroke:none;stroke-opacity:1;stroke-miterlimit:4;stroke-dasharray:none"
       d="m 313.09344,417.78202 19.60653,14.22778 -7.4956,-23.00733 19.5719,-14.22777 h -24.18724 l -7.49559,-23.0073 -7.49561,23.0073 h -24.18718 l 19.57188,14.22777 -7.49563,23.00733 z"
       id="path3481"
       sodipodi:nodetypes="ccccccccccc"
       inkscape:connector-curvature="0" />
    <path
       sodipodi:nodetypes="ccccccccccc"
       id="path3483"
       d="m 390.13036,454.48751 19.60656,14.22776 -7.49565,-23.00731 19.57187,-14.22777 h -24.18719 l -7.49559,-23.0073 -7.49561,23.0073 h -24.18719 l 19.57187,14.22777 -7.49561,23.00731 z"
       style="fill:#ffcc00;fill-opacity:1;stroke-width:0;stroke:none;stroke-opacity:1;stroke-miterlimit:4;stroke-dasharray:none"
       inkscape:connector-curvature="0" />
    <path
       sodipodi:nodetypes="ccccccccccc"
       id="path2406"
       d="m 606.29441,185.24435 -19.60656,14.22778 7.49564,-23.00732 -19.57186,-14.22778 h 24.18719 l 7.49559,-23.00729 7.49563,23.00729 h 24.18717 l -19.57187,14.22778 7.49561,23.00732 z"
       style="fill:#ffcc00;fill-opacity:1;stroke-width:0;stroke:none;stroke-opacity:1;stroke-miterlimit:4;stroke-dasharray:none"
       inkscape:connector-curvature="0" />
    <path
       style="fill:#ffcc00;fill-opacity:1;stroke-width:0;stroke:none;stroke-opacity:1;stroke-miterlimit:4;stroke-dasharray:none"
       d="m 624.97657,268.32483 -19.60654,14.22777 7.4956,-23.00731 -19.57186,-14.22778 h 24.18719 l 7.49561,-23.0073 7.49561,23.0073 h 24.18717 l -19.57186,14.22778 7.49564,23.00731 z"
       id="path2408"
       sodipodi:nodetypes="ccccccccccc"
       inkscape:connector-curvature="0" />
    <path
       style="fill:#ffcc00;fill-opacity:1;stroke-width:0;stroke:none;stroke-opacity:1;stroke-miterlimit:4;stroke-dasharray:none"
       d="m 605.63461,351.40529 -19.60652,14.22779 7.49561,-23.00732 -19.57187,-14.22778 h 24.18719 l 7.49559,-23.0073 7.49563,23.0073 h 24.18717 l -19.57186,14.22778 7.4956,23.00732 z"
       id="path2410"
       sodipodi:nodetypes="ccccccccccc"
       inkscape:connector-curvature="0" />
    <path
       sodipodi:nodetypes="ccccccccccc"
       id="path2412"
       d="m 552.3357,417.78202 -19.60653,14.22778 7.4956,-23.00733 -19.5719,-14.22777 h 24.18724 l 7.49559,-23.0073 7.49561,23.0073 h 24.18719 l -19.57189,14.22777 7.49563,23.00733 z"
       style="fill:#ffcc00;fill-opacity:1;stroke-width:0;stroke:none;stroke-opacity:1;stroke-miterlimit:4;stroke-dasharray:none"
       inkscape:connector-curvature="0" />
    <path
       style="fill:#ffcc00;fill-opacity:1;stroke-width:0;stroke:none;stroke-opacity:1;stroke-miterlimit:4;stroke-dasharray:none"
       d="m 475.29878,454.48751 -19.60656,14.22776 7.49565,-23.00731 -19.57187,-14.22777 h 24.18719 l 7.49559,-23.0073 7.49561,23.0073 h 24.18719 l -19.57187,14.22777 7.49561,23.00731 z"
       id="path2414"
       sodipodi:nodetypes="ccccccccccc"
       inkscape:connector-curvature="0" />
  </g>
  <path
     id="path5525"
     d="m 431.56891,320.71397 c 7.12274,0.24464 12.21842,2.80971 15.29601,7.712 3.07745,4.9024 4.58637,10.65495 4.512,17.28 0.0743,6.3316 -1.43454,11.92947 -4.512,16.768 -3.0776,4.83855 -8.17329,7.39065 -15.29601,7.648 -7.12278,-0.25735 -12.2185,-2.80944 -15.296,-7.648 -3.07756,-4.83853 -4.58646,-10.4364 -4.512,-16.768 -0.0745,-6.62505 1.43445,-12.3776 4.512,-17.28 3.07749,-4.9023 8.17321,-7.46736 15.296,-7.712 z"
     style="font-style:normal;font-variant:normal;font-weight:bold;font-stretch:normal;font-size:99.69660187px;line-height:125%;font-family:'Helvetica 55 Roman';-inkscape-font-specification:'Helvetica 55 Roman Bold';text-align:center;writing-mode:lr-tb;text-anchor:middle;fill:#003399;fill-opacity:1;stroke:#003399;stroke-width:0;stroke-linecap:butt;stroke-linejoin:miter;stroke-miterlimit:4;stroke-dasharray:none;stroke-opacity:1"
     inkscape:connector-curvature="0"
     sodipodi:nodetypes="cccccccsc" />
</svg>
