<?xml version="1.0" encoding="UTF-8" standalone="no"?>
<svg
   xmlns:dc="http://purl.org/dc/elements/1.1/"
   xmlns:cc="http://creativecommons.org/ns#"
   xmlns:rdf="http://www.w3.org/1999/02/22-rdf-syntax-ns#"
   xmlns:svg="http://www.w3.org/2000/svg"
   xmlns="http://www.w3.org/2000/svg"
   xmlns:xlink="http://www.w3.org/1999/xlink"
   id="svg5791"
   viewBox="-72 -48 144 96"
   height="600"
   width="900"
   version="1.1">
  <metadata
     id="metadata5795">
    <rdf:RDF>
      <cc:Work
         rdf:about="">
        <dc:format>image/svg+xml</dc:format>
        <dc:type
           rdf:resource="http://purl.org/dc/dcmitype/StillImage" />
        <dc:title></dc:title>
      </cc:Work>
    </rdf:RDF>
  </metadata>
  <defs
     id="defs5755">
    <rect
       y="-2"
       x="-12"
       height="4"
       width="24"
       id="b1" />
    <g
       id="b2">
      <rect
         id="rect5750"
         y="-2"
         x="-12"
         height="4"
         width="11" />
      <rect
         id="rect5752"
         y="-2"
         x="1"
         height="4"
         width="11" />
    </g>
  </defs>
  <g
     id="g5771"
     transform="rotate(56.31)">
    <!--arctan(3/2)-->
    <use
       id="use5759"
       transform="translate(0,-38)"
       xlink:href="#b2" />
    <use
       id="use5761"
       transform="translate(0,-44)"
       xlink:href="#b1" />
    <use
       id="use5763"
       transform="translate(0,-50)"
       xlink:href="#b2" />
    <use
       id="use5765"
       transform="translate(0,38)"
       xlink:href="#b1" />
    <use
       id="use5767"
       transform="translate(0,44)"
       xlink:href="#b2" />
    <use
       id="use5769"
       transform="translate(0,50)"
       xlink:href="#b1" />
  </g>
  <g
     id="g5789"
     transform="rotate(-56.31)">
    <!--arctan(-3/2)-->
    <use
       id="use5773"
       transform="translate(0,-38)"
       xlink:href="#b1" />
    <use
       id="use5775"
       transform="translate(0,-44)"
       xlink:href="#b1" />
    <use
       id="use5777"
       transform="translate(0,-50)"
       xlink:href="#b1" />
    <use
       id="use5779"
       transform="translate(0,38)"
       xlink:href="#b2" />
    <use
       id="use5781"
       transform="translate(0,44)"
       xlink:href="#b2" />
    <use
       id="use5783"
       transform="translate(0,50)"
       xlink:href="#b2" />
    <path
       style="fill:#c60c30"
       id="path5785"
       d="M 0,24 C 13.254843,24 23.99999,13.254834 23.99999,0 23.99999,-13.254834 13.254843,-24 0,-24 c -9.9411322,0 -17.999992,8.058875 -17.999992,18 0,9.9411253 8.0588598,18 17.999992,18" />
    <path
       style="fill:#003478"
       id="path5787"
       d="m 0,-24 c -6.6274215,0 -11.999995,5.372583 -11.999995,12 0,6.6274168 5.3725735,12 11.999995,12 6.6274215,0 11.999995,5.3725832 11.999995,12 0,6.627417 -5.3725735,12 -11.999995,12 -13.254843,0 -23.99999,-10.745166 -23.99999,-24 0,-13.254834 10.745147,-24 23.99999,-24" />
  </g>
</svg>
